<svg width="60" height="81" viewBox="0 0 60 81" fill="none" xmlns="http://www.w3.org/2000/svg">
<path d="M60 81H0V0H60V81ZM2 79H58V2H2V79ZM50 65H10V63H50V65ZM50 57H10V55H50V57ZM50 49H10V47H50V49ZM50 41H10V39H50V41ZM23.7422 12.7383C24.6625 12.7383 25.4919 12.9092 26.2305 13.25C26.969 13.5909 27.5743 14.0681 28.0459 14.6816C28.5174 15.2952 28.8101 16.0111 28.9238 16.8291H26.9131C26.7596 16.2326 26.418 15.7043 25.8896 15.2441C25.367 14.7784 24.6626 14.5459 23.7764 14.5459C22.9923 14.5459 22.3048 14.7501 21.7139 15.1592C21.1287 15.5626 20.6713 16.1335 20.3418 16.8721C20.018 17.6049 19.8555 18.4657 19.8555 19.4541C19.8555 20.4655 20.0148 21.3467 20.333 22.0967C20.6568 22.8465 21.1112 23.429 21.6963 23.8438C22.2872 24.2585 22.9809 24.4658 23.7764 24.4658C24.2989 24.4658 24.7732 24.3751 25.1992 24.1934C25.6254 24.0115 25.9868 23.7501 26.2822 23.4092C26.5776 23.0683 26.7881 22.6589 26.9131 22.1816H28.9238C28.8102 22.9543 28.5289 23.6502 28.0801 24.2695C27.637 24.883 27.0492 25.3717 26.3164 25.7354C25.5892 26.0933 24.7422 26.2725 23.7764 26.2725C22.5491 26.2725 21.4918 25.9829 20.6055 25.4033C19.7193 24.8238 19.0378 24.0256 18.5605 23.0088C18.0833 21.9917 17.8447 20.8293 17.8447 19.5225C17.8448 18.1931 18.0886 17.0199 18.5771 16.0029C19.0714 14.9804 19.7592 14.1822 20.6396 13.6084C21.526 13.0289 22.5604 12.7383 23.7422 12.7383ZM36.6367 23.3408H36.7734L40.3867 12.9092H42.5684L37.7275 26H35.6826L30.8418 12.9092H33.0234L36.6367 23.3408Z" fill="black"/>
</svg>
